<mxfile host="www.draw.io" modified="2019-12-04T16:19:17.276Z" agent="Mozilla/5.0 (Macintosh; Intel Mac OS X 10_12_6) AppleWebKit/537.36 (KHTML, like Gecko) Chrome/78.0.3904.97 Safari/537.36" etag="sOoSgXgXoszwxPR8ZDq7" version="12.3.6" type="github" pages="1">
  <diagram id="mC2z6ZHij45KzqhMj24y" name="Page-1">
    <mxGraphModel dx="786" dy="487" grid="1" gridSize="10" guides="1" tooltips="1" connect="1" arrows="1" fold="1" page="1" pageScale="1" pageWidth="850" pageHeight="1100" math="0" shadow="0">
      <root>
        <mxCell id="0"/>
        <mxCell id="1" parent="0"/>
        <mxCell id="YCONs0wasow0GZZ-GPy--1" value="应用" style="rounded=0;whiteSpace=wrap;html=1;fillColor=#dae8fc;strokeColor=#6c8ebf;align=left;" parent="1" vertex="1">
          <mxGeometry x="110" y="60" width="510" height="90" as="geometry"/>
        </mxCell>
        <mxCell id="YCONs0wasow0GZZ-GPy--2" value="BMS" style="rounded=0;whiteSpace=wrap;html=1;" parent="1" vertex="1">
          <mxGeometry x="280" y="75" width="90" height="60" as="geometry"/>
        </mxCell>
        <mxCell id="YCONs0wasow0GZZ-GPy--3" value="Portal" style="rounded=0;whiteSpace=wrap;html=1;" parent="1" vertex="1">
          <mxGeometry x="385" y="75" width="90" height="60" as="geometry"/>
        </mxCell>
        <mxCell id="YCONs0wasow0GZZ-GPy--8" value="业务框架" style="rounded=0;whiteSpace=wrap;html=1;align=left;fillColor=#d5e8d4;strokeColor=#82b366;" parent="1" vertex="1">
          <mxGeometry x="110" y="160" width="510" height="100" as="geometry"/>
        </mxCell>
        <mxCell id="YCONs0wasow0GZZ-GPy--12" value="混合APP框架" style="rounded=0;whiteSpace=wrap;html=1;" parent="1" vertex="1">
          <mxGeometry x="180" y="180" width="100" height="60" as="geometry"/>
        </mxCell>
        <mxCell id="YCONs0wasow0GZZ-GPy--13" value="BMS业务框架" style="rounded=0;whiteSpace=wrap;html=1;" parent="1" vertex="1">
          <mxGeometry x="290" y="180" width="100" height="60" as="geometry"/>
        </mxCell>
        <mxCell id="YCONs0wasow0GZZ-GPy--14" value="业务组件" style="rounded=0;whiteSpace=wrap;html=1;align=left;fillColor=#ffe6cc;strokeColor=#d79b00;" parent="1" vertex="1">
          <mxGeometry x="110" y="280" width="510" height="100" as="geometry"/>
        </mxCell>
        <mxCell id="YCONs0wasow0GZZ-GPy--17" value="业务UI组件" style="rounded=0;whiteSpace=wrap;html=1;" parent="1" vertex="1">
          <mxGeometry x="180" y="300" width="120" height="60" as="geometry"/>
        </mxCell>
        <mxCell id="YCONs0wasow0GZZ-GPy--19" value="业务功能组件" style="rounded=0;whiteSpace=wrap;html=1;" parent="1" vertex="1">
          <mxGeometry x="320" y="300" width="120" height="60" as="geometry"/>
        </mxCell>
        <mxCell id="YCONs0wasow0GZZ-GPy--20" value="基础组件" style="rounded=0;whiteSpace=wrap;html=1;align=left;fillColor=#f5f5f5;strokeColor=#666666;fontColor=#333333;" parent="1" vertex="1">
          <mxGeometry x="110" y="400" width="510" height="80" as="geometry"/>
        </mxCell>
        <mxCell id="YCONs0wasow0GZZ-GPy--21" value="基础UI组件" style="rounded=0;whiteSpace=wrap;html=1;" parent="1" vertex="1">
          <mxGeometry x="170" y="410" width="80" height="60" as="geometry"/>
        </mxCell>
        <mxCell id="YCONs0wasow0GZZ-GPy--22" value="&amp;nbsp;协议组件" style="rounded=0;whiteSpace=wrap;html=1;" parent="1" vertex="1">
          <mxGeometry x="260" y="410" width="60" height="60" as="geometry"/>
        </mxCell>
        <mxCell id="YCONs0wasow0GZZ-GPy--25" value="其他应用..." style="rounded=0;whiteSpace=wrap;html=1;" parent="1" vertex="1">
          <mxGeometry x="490" y="75" width="120" height="60" as="geometry"/>
        </mxCell>
        <mxCell id="YCONs0wasow0GZZ-GPy--26" value="工具组件" style="rounded=0;whiteSpace=wrap;html=1;" parent="1" vertex="1">
          <mxGeometry x="330" y="410" width="70" height="60" as="geometry"/>
        </mxCell>
        <mxCell id="6pe8D8bSwLI52zhU29Og-7" value="多语言" style="rounded=0;whiteSpace=wrap;html=1;" parent="1" vertex="1">
          <mxGeometry x="410" y="410" width="70" height="60" as="geometry"/>
        </mxCell>
        <mxCell id="6pe8D8bSwLI52zhU29Og-8" value="换肤" style="rounded=0;whiteSpace=wrap;html=1;" parent="1" vertex="1">
          <mxGeometry x="490" y="410" width="50" height="60" as="geometry"/>
        </mxCell>
        <mxCell id="6pe8D8bSwLI52zhU29Og-12" value="Portal 业务框架" style="rounded=0;whiteSpace=wrap;html=1;" parent="1" vertex="1">
          <mxGeometry x="400" y="180" width="100" height="60" as="geometry"/>
        </mxCell>
        <mxCell id="6pe8D8bSwLI52zhU29Og-13" value="..." style="rounded=0;whiteSpace=wrap;html=1;" parent="1" vertex="1">
          <mxGeometry x="550" y="410" width="60" height="60" as="geometry"/>
        </mxCell>
        <mxCell id="6pe8D8bSwLI52zhU29Og-16" value="LMS" style="rounded=0;whiteSpace=wrap;html=1;" parent="1" vertex="1">
          <mxGeometry x="180" y="75" width="90" height="60" as="geometry"/>
        </mxCell>
        <mxCell id="6pe8D8bSwLI52zhU29Og-17" value="" style="endArrow=classic;html=1;" parent="1" edge="1">
          <mxGeometry width="50" height="50" relative="1" as="geometry">
            <mxPoint x="50" y="80" as="sourcePoint"/>
            <mxPoint x="50" y="470" as="targetPoint"/>
          </mxGeometry>
        </mxCell>
        <mxCell id="6pe8D8bSwLI52zhU29Og-18" value="沉淀" style="text;html=1;align=center;verticalAlign=middle;resizable=0;points=[];;labelBackgroundColor=#ffffff;" parent="6pe8D8bSwLI52zhU29Og-17" vertex="1" connectable="0">
          <mxGeometry x="-0.0974" y="-2" relative="1" as="geometry">
            <mxPoint as="offset"/>
          </mxGeometry>
        </mxCell>
        <mxCell id="6pe8D8bSwLI52zhU29Og-19" value="" style="rounded=0;whiteSpace=wrap;html=1;fillColor=#fff2cc;strokeColor=#d6b656;align=left;" parent="1" vertex="1">
          <mxGeometry x="660" y="60" width="110" height="420" as="geometry"/>
        </mxCell>
        <mxCell id="6pe8D8bSwLI52zhU29Og-20" value="埋点统计" style="rounded=0;whiteSpace=wrap;html=1;" parent="1" vertex="1">
          <mxGeometry x="677" y="120" width="83" height="40" as="geometry"/>
        </mxCell>
        <mxCell id="6pe8D8bSwLI52zhU29Og-24" value="日志监控" style="rounded=0;whiteSpace=wrap;html=1;" parent="1" vertex="1">
          <mxGeometry x="679" y="170" width="80" height="50" as="geometry"/>
        </mxCell>
        <mxCell id="6pe8D8bSwLI52zhU29Og-25" value="异常告警" style="rounded=0;whiteSpace=wrap;html=1;" parent="1" vertex="1">
          <mxGeometry x="680" y="230" width="80" height="50" as="geometry"/>
        </mxCell>
        <mxCell id="6pe8D8bSwLI52zhU29Og-28" value="调试工具" style="rounded=0;whiteSpace=wrap;html=1;" parent="1" vertex="1">
          <mxGeometry x="680" y="290" width="80" height="50" as="geometry"/>
        </mxCell>
        <mxCell id="6pe8D8bSwLI52zhU29Og-31" value="脚手架" style="rounded=0;whiteSpace=wrap;html=1;" parent="1" vertex="1">
          <mxGeometry x="680" y="350" width="80" height="50" as="geometry"/>
        </mxCell>
        <mxCell id="6pe8D8bSwLI52zhU29Og-36" value="..." style="rounded=0;whiteSpace=wrap;html=1;" parent="1" vertex="1">
          <mxGeometry x="460" y="300" width="130" height="60" as="geometry"/>
        </mxCell>
        <mxCell id="6pe8D8bSwLI52zhU29Og-37" value="..." style="rounded=0;whiteSpace=wrap;html=1;" parent="1" vertex="1">
          <mxGeometry x="510" y="180" width="100" height="60" as="geometry"/>
        </mxCell>
        <mxCell id="6pe8D8bSwLI52zhU29Og-38" value="开源组件" style="rounded=0;whiteSpace=wrap;html=1;align=left;glass=0;comic=0;" parent="1" vertex="1">
          <mxGeometry x="110" y="500" width="510" height="30" as="geometry"/>
        </mxCell>
        <mxCell id="6pe8D8bSwLI52zhU29Og-40" value="规范约束" style="rounded=0;whiteSpace=wrap;html=1;" parent="1" vertex="1">
          <mxGeometry x="677" y="70" width="83" height="40" as="geometry"/>
        </mxCell>
        <mxCell id="6pe8D8bSwLI52zhU29Og-52" value="Scenes&lt;br&gt;(交互组件)" style="rounded=0;whiteSpace=wrap;html=1;align=left;fillColor=#d5e8d4;strokeColor=#82b366;" parent="1" vertex="1">
          <mxGeometry x="150" y="730" width="170" height="190" as="geometry"/>
        </mxCell>
        <mxCell id="6pe8D8bSwLI52zhU29Og-54" value="page" style="rounded=0;whiteSpace=wrap;html=1;align=left;" parent="1" vertex="1">
          <mxGeometry x="220" y="745" width="93" height="75" as="geometry"/>
        </mxCell>
        <mxCell id="6pe8D8bSwLI52zhU29Og-57" value="core" style="rounded=0;whiteSpace=wrap;html=1;shadow=0;align=left;fillColor=#f5f5f5;strokeColor=#666666;fontColor=#333333;" parent="1" vertex="1">
          <mxGeometry x="150" y="990" width="450" height="90" as="geometry"/>
        </mxCell>
        <mxCell id="6pe8D8bSwLI52zhU29Og-59" value="SigMesh&lt;br&gt;(服务组件)" style="rounded=0;whiteSpace=wrap;html=1;align=left;fillColor=#fff2cc;strokeColor=#d6b656;" parent="1" vertex="1">
          <mxGeometry x="330" y="730" width="120" height="190" as="geometry"/>
        </mxCell>
        <mxCell id="6pe8D8bSwLI52zhU29Og-61" value="控制" style="rounded=0;whiteSpace=wrap;html=1;shadow=0;glass=0;comic=0;" parent="1" vertex="1">
          <mxGeometry x="390" y="745" width="50" height="40" as="geometry"/>
        </mxCell>
        <mxCell id="6pe8D8bSwLI52zhU29Og-62" value="成组" style="rounded=0;whiteSpace=wrap;html=1;shadow=0;glass=0;comic=0;" parent="1" vertex="1">
          <mxGeometry x="390" y="800" width="50" height="45" as="geometry"/>
        </mxCell>
        <mxCell id="6pe8D8bSwLI52zhU29Og-63" value="scene" style="rounded=0;whiteSpace=wrap;html=1;shadow=0;glass=0;comic=0;" parent="1" vertex="1">
          <mxGeometry x="390" y="853" width="50" height="45" as="geometry"/>
        </mxCell>
        <mxCell id="6pe8D8bSwLI52zhU29Og-68" value="应用" style="rounded=0;whiteSpace=wrap;html=1;shadow=0;glass=0;comic=0;align=left;fillColor=#ffe6cc;strokeColor=#d79b00;" parent="1" vertex="1">
          <mxGeometry x="150" y="630" width="450" height="80" as="geometry"/>
        </mxCell>
        <mxCell id="6pe8D8bSwLI52zhU29Og-69" value="BMS" style="rounded=0;whiteSpace=wrap;html=1;shadow=0;glass=0;comic=0;" parent="1" vertex="1">
          <mxGeometry x="195" y="640" width="170" height="60" as="geometry"/>
        </mxCell>
        <mxCell id="6pe8D8bSwLI52zhU29Og-70" value="LMS" style="rounded=0;whiteSpace=wrap;html=1;shadow=0;glass=0;comic=0;" parent="1" vertex="1">
          <mxGeometry x="382.5" y="640" width="185" height="60" as="geometry"/>
        </mxCell>
        <mxCell id="6pe8D8bSwLI52zhU29Og-71" value="换肤" style="rounded=0;whiteSpace=wrap;html=1;shadow=0;glass=0;comic=0;" parent="1" vertex="1">
          <mxGeometry x="200" y="1010" width="50" height="60" as="geometry"/>
        </mxCell>
        <mxCell id="6pe8D8bSwLI52zhU29Og-73" value="多语言" style="rounded=0;whiteSpace=wrap;html=1;shadow=0;glass=0;comic=0;" parent="1" vertex="1">
          <mxGeometry x="270" y="1010" width="45" height="60" as="geometry"/>
        </mxCell>
        <mxCell id="6pe8D8bSwLI52zhU29Og-74" value="SigMesh&lt;br&gt;(服务组件)" style="rounded=0;whiteSpace=wrap;html=1;align=left;fillColor=#fff2cc;strokeColor=#d6b656;" parent="1" vertex="1">
          <mxGeometry x="460" y="730" width="140" height="190" as="geometry"/>
        </mxCell>
        <mxCell id="6pe8D8bSwLI52zhU29Og-76" value="控制" style="rounded=0;whiteSpace=wrap;html=1;shadow=0;glass=0;comic=0;" parent="1" vertex="1">
          <mxGeometry x="520" y="745" width="50" height="40" as="geometry"/>
        </mxCell>
        <mxCell id="6pe8D8bSwLI52zhU29Og-77" value="成组" style="rounded=0;whiteSpace=wrap;html=1;shadow=0;glass=0;comic=0;" parent="1" vertex="1">
          <mxGeometry x="520" y="800" width="50" height="45" as="geometry"/>
        </mxCell>
        <mxCell id="6pe8D8bSwLI52zhU29Og-78" value="scene" style="rounded=0;whiteSpace=wrap;html=1;shadow=0;glass=0;comic=0;" parent="1" vertex="1">
          <mxGeometry x="520" y="853" width="50" height="47" as="geometry"/>
        </mxCell>
        <mxCell id="fKgnZvQEvgCLy6BaPN-c-1" value="容错容灾" style="rounded=0;whiteSpace=wrap;html=1;" vertex="1" parent="1">
          <mxGeometry x="680" y="410" width="80" height="45" as="geometry"/>
        </mxCell>
        <mxCell id="fKgnZvQEvgCLy6BaPN-c-7" value="路由管理" style="rounded=0;whiteSpace=wrap;html=1;shadow=0;glass=0;comic=0;" vertex="1" parent="1">
          <mxGeometry x="340" y="1010" width="55" height="60" as="geometry"/>
        </mxCell>
        <mxCell id="fKgnZvQEvgCLy6BaPN-c-11" value="权限管理" style="rounded=0;whiteSpace=wrap;html=1;" vertex="1" parent="1">
          <mxGeometry x="415" y="1010" width="70" height="60" as="geometry"/>
        </mxCell>
        <mxCell id="fKgnZvQEvgCLy6BaPN-c-12" value="模块通讯" style="rounded=0;whiteSpace=wrap;html=1;" vertex="1" parent="1">
          <mxGeometry x="510" y="1010" width="70" height="60" as="geometry"/>
        </mxCell>
        <mxCell id="fKgnZvQEvgCLy6BaPN-c-13" value="store（可替换）" style="rounded=0;whiteSpace=wrap;html=1;" vertex="1" parent="1">
          <mxGeometry x="220" y="876" width="90" height="34" as="geometry"/>
        </mxCell>
        <mxCell id="fKgnZvQEvgCLy6BaPN-c-14" value="适配器" style="rounded=0;whiteSpace=wrap;html=1;" vertex="1" parent="1">
          <mxGeometry x="220" y="850" width="90" height="27" as="geometry"/>
        </mxCell>
        <mxCell id="fKgnZvQEvgCLy6BaPN-c-15" value="DAO" style="rounded=0;whiteSpace=wrap;html=1;" vertex="1" parent="1">
          <mxGeometry x="220" y="828" width="91" height="23" as="geometry"/>
        </mxCell>
        <mxCell id="fKgnZvQEvgCLy6BaPN-c-16" value="UI组件" style="rounded=0;whiteSpace=wrap;html=1;" vertex="1" parent="1">
          <mxGeometry x="250" y="755" width="60" height="25" as="geometry"/>
        </mxCell>
        <mxCell id="fKgnZvQEvgCLy6BaPN-c-17" value="功能组件" style="rounded=0;whiteSpace=wrap;html=1;" vertex="1" parent="1">
          <mxGeometry x="250" y="785" width="60" height="25" as="geometry"/>
        </mxCell>
        <mxCell id="fKgnZvQEvgCLy6BaPN-c-18" value="" style="shape=flexArrow;endArrow=classic;startArrow=classic;html=1;entryX=0.371;entryY=1.011;entryDx=0;entryDy=0;entryPerimeter=0;exitX=0.14;exitY=-0.022;exitDx=0;exitDy=0;exitPerimeter=0;" edge="1" parent="1" source="6pe8D8bSwLI52zhU29Og-57" target="6pe8D8bSwLI52zhU29Og-52">
          <mxGeometry width="50" height="50" relative="1" as="geometry">
            <mxPoint x="210" y="960" as="sourcePoint"/>
            <mxPoint x="210" y="930" as="targetPoint"/>
          </mxGeometry>
        </mxCell>
        <mxCell id="fKgnZvQEvgCLy6BaPN-c-19" value="" style="shape=flexArrow;endArrow=classic;startArrow=classic;html=1;entryX=0.371;entryY=1.011;entryDx=0;entryDy=0;entryPerimeter=0;" edge="1" parent="1">
          <mxGeometry width="50" height="50" relative="1" as="geometry">
            <mxPoint x="389" y="990" as="sourcePoint"/>
            <mxPoint x="389.07000000000005" y="920.0899999999999" as="targetPoint"/>
          </mxGeometry>
        </mxCell>
        <mxCell id="fKgnZvQEvgCLy6BaPN-c-20" value="" style="shape=flexArrow;endArrow=classic;startArrow=classic;html=1;entryX=0.371;entryY=1.011;entryDx=0;entryDy=0;entryPerimeter=0;" edge="1" parent="1">
          <mxGeometry width="50" height="50" relative="1" as="geometry">
            <mxPoint x="529" y="989" as="sourcePoint"/>
            <mxPoint x="529.07" y="920.0899999999999" as="targetPoint"/>
          </mxGeometry>
        </mxCell>
      </root>
    </mxGraphModel>
  </diagram>
</mxfile>
